<svg width="40" height="40" viewBox="0 0 40 40" fill="none" xmlns="http://www.w3.org/2000/svg">
<path d="M20.4517 8.92738L10.737 20.6606C10.737 20.6606 9.49149 22.0338 10.2388 23.157C11.1388 24.5097 12.4807 24.4052 12.4807 24.4052L17.9608 24.1556L16.2171 29.1484C16.2171 29.1484 15.7189 30.3654 16.9644 31.1456C18.9571 32.3938 20.2026 30.6463 20.2026 30.6463L29.6682 18.9131C29.6682 18.9131 31.0208 17.5941 30.1663 16.167C29.631 15.2729 28.1736 15.4181 28.1736 15.4181L22.1953 15.9174L23.6899 10.4252C23.6899 10.4252 24.0649 9.16075 23.1918 8.42809C21.7639 7.22987 20.4517 8.92738 20.4517 8.92738Z" fill="black" stroke="black"/>
</svg>
