<svg width="22" height="26" viewBox="0 0 22 26" fill="none" xmlns="http://www.w3.org/2000/svg">
<path d="M11.202 1.67739L1.48723 13.4106C1.48723 13.4106 0.241731 14.7838 0.989021 15.907C1.88906 17.2597 3.23094 17.1552 3.23094 17.1552L8.71102 16.9056L6.96731 21.8984C6.96731 21.8984 6.46919 23.1154 7.71466 23.8956C9.70736 25.1438 10.9529 23.3963 10.9529 23.3963L20.4185 11.6631C20.4185 11.6631 21.771 10.3441 20.9166 8.91703C20.3812 8.02294 18.9239 8.1681 18.9239 8.1681L12.9456 8.66739L14.4402 3.17524C14.4402 3.17524 14.8152 1.91076 13.9421 1.1781C12.5142 -0.0201198 11.202 1.67739 11.202 1.67739Z" fill="#FF4B33" stroke="white" stroke-width="1.5"/>
</svg>
