<svg width="22" height="25" viewBox="0 0 22 25" fill="none" xmlns="http://www.w3.org/2000/svg">
<path d="M10.952 1.42738L1.23723 13.1606C1.23723 13.1606 -0.00826906 14.5338 0.739021 15.657C1.63906 17.0097 2.98094 16.9052 2.98094 16.9052L8.46102 16.6556L6.71731 21.6484C6.71731 21.6484 6.21919 22.8654 7.46466 23.6456C9.45736 24.8938 10.7029 23.1463 10.7029 23.1463L20.1685 11.4131C20.1685 11.4131 21.521 10.0941 20.6666 8.66702C20.1312 7.77294 18.6739 7.91809 18.6739 7.91809L12.6956 8.41738L14.1902 2.92523C14.1902 2.92523 14.5652 1.66076 13.6921 0.928095C12.2642 -0.270125 10.952 1.42738 10.952 1.42738Z" fill="#EF8070" stroke="#F53C21"/>
</svg>
