<svg width="40" height="40" viewBox="0 0 40 40" fill="none" xmlns="http://www.w3.org/2000/svg">
<rect width="40" height="40" fill="white"/>
<mask id="mask0_3370_7" style="mask-type:alpha" maskUnits="userSpaceOnUse" x="6" y="4" width="28" height="32">
<path d="M20.3109 5.25773L7.00911 21.1705C7.00911 21.1705 5.30373 23.0329 6.32694 24.5562C7.55931 26.3907 9.39666 26.249 9.39666 26.249L16.9002 25.9105L14.5126 32.6818C14.5126 32.6818 13.8306 34.3323 15.5359 35.3904C18.2644 37.0832 19.9698 34.7132 19.9698 34.7132L32.9304 18.8005C32.9304 18.8005 34.7824 17.0117 33.6124 15.0762C32.8795 13.8636 30.884 14.0605 30.884 14.0605L22.6983 14.7377L24.7447 7.28913C24.7447 7.28913 25.2582 5.57423 24.0627 4.58058C22.1076 2.95554 20.3109 5.25773 20.3109 5.25773Z" fill="#FE4E34"/>
</mask>
<g mask="url(#mask0_3370_7)">
<rect width="40" height="40" fill="black"/>
</g>
</svg>
